<svg id="레이어_1" data-name="레이어 1" xmlns="http://www.w3.org/2000/svg" viewBox="0 0 95.33 95.33"><defs><style>.cls-1{fill:#000000;}</style></defs><title>colour+icon</title><path class="cls-1" d="M44.84,2.45h5.3a4.11,4.11,0,0,0,.68.14A41.77,41.77,0,0,1,66.57,6.7C80.48,13.52,89,24.54,92,39.76c.34,1.72.48,3.48.72,5.22v5.29a5.43,5.43,0,0,0-.16.76,42.34,42.34,0,0,1-5.15,17.79c-7,12.73-17.7,20.52-32,23.27-1.72.33-3.48.48-5.22.71h-5.3a5.15,5.15,0,0,0-.68-.15,41.59,41.59,0,0,1-15.83-4.13C14.48,81.68,6,70.68,3,55.48c-.34-1.71-.48-3.47-.71-5.21V45a7.28,7.28,0,0,0,.15-.76,42.49,42.49,0,0,1,5.15-17.8c7-12.72,17.7-20.51,32-23.26C41.34,2.83,43.1,2.68,44.84,2.45ZM85.75,47.63A38.26,38.26,0,1,0,47.48,85.89,38.4,38.4,0,0,0,85.75,47.63Z"/><path class="cls-1" d="M66.81,34.06c0,5.07-1.51,8.48-4.49,11.19-1.5,1.37-3.13,2.59-4.7,3.87-2.16,1.74-4,3.72-4.45,6.59-.15.88-.16,1.79-.3,2.67a5.31,5.31,0,0,1-10.36,0,9.69,9.69,0,0,1,1.42-7,22.36,22.36,0,0,1,5.4-5.91,54.1,54.1,0,0,0,4.4-3.58,9.23,9.23,0,0,0,2.93-9C55.57,27.72,50.15,25,45,26.79a8.92,8.92,0,0,0-6.12,6.57c-.32,1.33-.6,2.68-.9,4-.63,2.84-3.06,4.45-5.64,3.75a4.43,4.43,0,0,1-3.2-4.35c-.1-7.2,2.81-14.38,10.2-17.94a19.08,19.08,0,0,1,16.36-.62C61.86,20.83,66.79,28.4,66.81,34.06Z"/><path class="cls-1" d="M47.73,69.82a5.29,5.29,0,1,1-5.36,5.25A5.31,5.31,0,0,1,47.73,69.82Z"/></svg>