<svg id="레이어_1" data-name="레이어 1" xmlns="http://www.w3.org/2000/svg" viewBox="0 0 95.33 95.33"><defs><style>.cls-1{fill:#000000;}</style></defs><title>colour+icon</title><path class="cls-1" d="M4.43,70V32.16a3.54,3.54,0,0,0,.18-.55A13.57,13.57,0,0,1,17.94,20.18q30.14,0,60.29,0A13.53,13.53,0,0,1,91.75,33.87V68.32A13.56,13.56,0,0,1,78.14,82Q48.08,82,18,82A13.55,13.55,0,0,1,5,72.24C4.77,71.51,4.61,70.76,4.43,70Zm8-40a6.56,6.56,0,0,0-1.23,3.84c0,11.52,0,23,0,34.54a6.75,6.75,0,0,0,7,6.84q29.85,0,59.7,0a7.76,7.76,0,0,0,2.65-.48c2.79-1,4.36-3.54,4.36-6.85q0-14.44,0-28.91c0-1.82,0-3.64,0-5.45a6.11,6.11,0,0,0-1.25-3.56L76.84,38.2Q66.73,50.43,56.61,62.63c-4.8,5.78-12.56,5.85-17.26.16C33.9,56.2,28.5,49.56,23.08,42.94ZM18.88,27l4.54,5.54q10.52,12.82,21,25.65c2.16,2.63,4.79,2.63,7,0l24.3-29.34L77.18,27Z"/></svg>