<svg id="레이어_1" data-name="레이어 1" xmlns="http://www.w3.org/2000/svg" viewBox="0 0 95.33 95.33"><defs><style>.cls-1{fill:#000000;fill-rule:evenodd;}</style></defs><title>colour+icon</title><path class="cls-1" d="M26.67,46.18v-13h8.75c.06-1.2.14-2.09.16-3,.1-3.9,0-7.82.33-11.69.75-7.81,5.7-13.26,13.48-13.76,5.94-.39,12,.56,18,1a5.72,5.72,0,0,1,1.38.51c-.75,4.36-1.48,8.66-2.22,13-2.59-.31-4.92-.79-7.26-.84-4.91-.11-6.75,1.81-6.76,6.7,0,2.53,0,5.06,0,7.9H67c-.35,4.52-.68,8.68-1,13.11H52.57V90.8H35.68V46.18Z"/></svg>