<svg id="레이어_1" data-name="레이어 1" xmlns="http://www.w3.org/2000/svg" viewBox="0 0 95.33 95.33"><defs><style>.cls-1{fill:#000000;}</style></defs><title>colour+icon</title><path class="cls-1" d="M62.56,89.75h-30c-2.08-.17-4.18-.22-6.23-.55C17.48,87.8,11,83.26,7.53,74.73a31.91,31.91,0,0,1-2-9.91L5,57.11V36.78c.07-.48.17-1,.2-1.43.21-3.06.29-6.14.62-9.18,1-9.36,5.65-16.1,14.72-19.26a50.42,50.42,0,0,1,8.33-1.7c1.92-.31,3.89-.37,5.83-.54H60.41l2.24.26c2.61.27,5.26.35,7.82.85C79,7.45,85.37,12,88.09,20.58A45.91,45.91,0,0,1,89.55,29c.32,2.59.39,5.21.56,7.82V57.11c-.07.66-.16,1.32-.21,2-.19,2.89-.31,5.78-.57,8.66-1.09,11.9-8.87,20-20.68,21.48C66.63,89.49,64.59,89.58,62.56,89.75Zm-15-8.25V82c7-.25,14.07-.24,21.07-.8,8.61-.69,13.38-5.64,14-14.06a287.55,287.55,0,0,0,0-40.46c-.55-7.79-4.34-12.3-12-13.7A72.34,72.34,0,0,0,58,12.11c-10.15,0-20.3-.07-30.43.34-9.23.37-14.38,5.38-15,14.12a277.74,277.74,0,0,0,0,40.59c.53,7.25,4,11.57,10.45,13.32a27.86,27.86,0,0,0,6.41,1C35.43,81.59,41.52,81.5,47.61,81.5Z"/><g id="Q0I97X.tif"><path class="cls-1" d="M50.91,40.73c.64-.75,1.2-1.48,1.83-2.14a9.71,9.71,0,0,1,6-2.93,13.62,13.62,0,0,1,6.6.68A10.54,10.54,0,0,1,71,41.29a17.89,17.89,0,0,1,2,8.81q0,9.07,0,18.14c0,.12,0,.25,0,.38H62.22v-17a12.54,12.54,0,0,0-.58-4.21,4.86,4.86,0,0,0-5.27-3.36,5.84,5.84,0,0,0-5.19,4.24,9.81,9.81,0,0,0-.26,2.61c0,5.71,0,11.43,0,17.15v.56H40.18V36.29H50.44c.39,0,.49.11.48.48,0,1.18,0,2.36,0,3.54Z"/><path class="cls-1" d="M34.16,36.29V68.65h-.42c-3.28,0-6.55,0-9.83,0-.39,0-.47-.11-.47-.48V36.76c0-.37.09-.48.47-.48H34.16Z"/><path class="cls-1" d="M28.79,31.88a5.77,5.77,0,0,1-5.1-2.55,5.48,5.48,0,0,1,3-8.3,6.55,6.55,0,0,1,5.9.77,5.24,5.24,0,0,1,2.22,5.25,5.08,5.08,0,0,1-3.51,4.37,19,19,0,0,1-2.51.56Z"/></g></svg>