<svg id="레이어_1" data-name="레이어 1" xmlns="http://www.w3.org/2000/svg" viewBox="0 0 95.33 95.33"><defs><style>.cls-1{fill:#000000;fill-rule:evenodd;}</style></defs><title>colour+icon</title><g id="CKLDcY.tif"><path class="cls-1" d="M29.24,72.79A19.14,19.14,0,0,1,16.5,67.45a18.7,18.7,0,0,1-5-7.94A19,19,0,0,0,20,59.19,19.23,19.23,0,0,1,9.05,52.41,18.91,18.91,0,0,1,4.82,40.23,19.71,19.71,0,0,0,9,41.93a18.69,18.69,0,0,0,4.45.67A19,19,0,0,1,5.12,29,18.78,18.78,0,0,1,7.54,17.17C17.86,29.34,30.92,36,46.86,37.12c-.1-.62-.21-1.16-.28-1.7A19.06,19.06,0,0,1,57,15.62a18.45,18.45,0,0,1,9-1.94,18.87,18.87,0,0,1,13.21,5.83.35.35,0,0,0,.39.12A38,38,0,0,0,91.1,15.28l.41-.22A19.42,19.42,0,0,1,83.14,25.6a38.51,38.51,0,0,0,10.83-3l0,.06c-.58.79-1.15,1.6-1.76,2.37a37.5,37.5,0,0,1-7.53,7.25.37.37,0,0,0-.18.36,51.57,51.57,0,0,1-.24,7.66,55.12,55.12,0,0,1-3,12.91,56.29,56.29,0,0,1-8,15A51.54,51.54,0,0,1,43,87.84,56.62,56.62,0,0,1,35.16,89a58.19,58.19,0,0,1-9.7,0A54,54,0,0,1,8.57,84.65,52.16,52.16,0,0,1,1.34,80.8l-.17-.13A38.35,38.35,0,0,0,29.24,72.79Z"/></g></svg>